<svg xmlns="http://www.w3.org/2000/svg" width="234" height="73" viewBox="0 0 234 73"><g><g><g><path fill="#00245b" d="M184.106 68.175a2.83 2.83 0 0 1-2.83-2.825 2.83 2.83 0 0 1 2.83-2.825c1.56 0 2.829 1.268 2.829 2.825a2.831 2.831 0 0 1-2.83 2.825m0-8.475c-3.12 0-5.659 2.534-5.659 5.65 0 3.116 2.539 5.65 5.66 5.65 3.12 0 5.659-2.534 5.659-5.65 0-3.116-2.539-5.65-5.66-5.65"/></g><g><path fill="none" stroke="#00245b" stroke-miterlimit="20" stroke-width=".2" d="M184.106 68.175a2.83 2.83 0 0 1-2.83-2.825 2.83 2.83 0 0 1 2.83-2.825c1.56 0 2.829 1.268 2.829 2.825a2.831 2.831 0 0 1-2.83 2.825m0-8.475c-3.12 0-5.659 2.534-5.659 5.65 0 3.116 2.539 5.65 5.66 5.65 3.12 0 5.659-2.534 5.659-5.65 0-3.116-2.539-5.65-5.66-5.65"/></g><g><path fill="#00245b" d="M218.556 68.175a2.83 2.83 0 0 1-2.829-2.825 2.83 2.83 0 0 1 2.83-2.825c1.559 0 2.829 1.268 2.829 2.825a2.831 2.831 0 0 1-2.83 2.825m0-8.475c-3.12 0-5.659 2.534-5.659 5.65 0 3.116 2.538 5.65 5.66 5.65 3.12 0 5.659-2.534 5.659-5.65 0-3.116-2.539-5.65-5.66-5.65"/></g><g><path fill="none" stroke="#00245b" stroke-miterlimit="20" stroke-width=".2" d="M218.556 68.175a2.83 2.83 0 0 1-2.829-2.825 2.83 2.83 0 0 1 2.83-2.825c1.559 0 2.829 1.268 2.829 2.825a2.831 2.831 0 0 1-2.83 2.825m0-8.475c-3.12 0-5.659 2.534-5.659 5.65 0 3.116 2.538 5.65 5.66 5.65 3.12 0 5.659-2.534 5.659-5.65 0-3.116-2.539-5.65-5.66-5.65"/></g><g><path fill="#f07400" d="M202.95 6.018a5.866 5.866 0 0 0-3.811 1.555 5.945 5.945 0 0 0-1.432 2.025 5.757 5.757 0 0 0-.462 2.43c.085 3.135 2.7 5.686 5.829 5.686l.188-.003a5.854 5.854 0 0 0 5.67-5.326c.022-.237.029-.468.022-.688-.091-3.133-2.713-5.68-5.843-5.68l-.162.001m.796 32.73c-.374 0-.72-.17-.947-.466l-.231-.298c-.328-.425-.646-.836-.96-1.252-3.162-4.188-5.567-7.713-7.568-11.095-1.188-2.007-2.687-4.692-3.743-7.662-.649-1.826-.859-3.74-.641-5.85.209-2.03.711-3.8 1.537-5.412.04-.08.082-.157.124-.235a11.972 11.972 0 0 1 1.801-2.52 11.381 11.381 0 0 1 1.626-1.433C197.088.826 199.886 0 203.297 0c.104 0 .209 0 .313.002 1.738.025 3.376.315 4.868.861 2.323.851 4.216 2.294 5.627 4.289 1.27 1.793 2.056 3.876 2.477 6.557a12.28 12.28 0 0 1-.003 3.759c-.14.946-.38 1.915-.734 2.962-.126.375-.263.75-.406 1.116-1.337 3.419-3.119 6.874-5.606 10.871-1.144 1.839-2.36 3.67-3.535 5.439-.52.782-1.038 1.563-1.552 2.348l-.007.009c-.22.335-.592.534-.994.534"/></g><g><path fill="#00245b" d="M227.444 14.313h-9.836c-.024.423-.066.851-.131 1.287a16.215 16.215 0 0 1-.307 1.538h10.274c.951 0 1.726.773 1.726 1.724v.4c0 .252-.056.506-.164.734l-9.871 20.943a2.845 2.845 0 0 1-2.562 1.622h-27.37l-7.428-25.423h7.323a13.519 13.519 0 0 1-.417-2.825h-7.613l-.58-1.58a5.686 5.686 0 0 0-5.432-4.07h-3.89a1.413 1.413 0 1 0 0 2.825h3.89c1.25 0 2.367.836 2.716 2.034l8.806 30.142-4.512 5.63a4.56 4.56 0 0 0-.998 2.842c0 2.509 2.044 4.549 4.557 4.549h39.301a1.413 1.413 0 1 0 0-2.825h-39.3a1.722 1.722 0 1 1-1.349-2.801l4.546-5.674h27.75a5.685 5.685 0 0 0 5.122-3.244l9.873-20.944a4.584 4.584 0 0 0 .432-1.935v-.4a4.557 4.557 0 0 0-4.556-4.55"/></g><g><path fill="none" stroke="#00245b" stroke-miterlimit="20" stroke-width=".2" d="M227.444 14.313v0h-9.836c-.024.423-.066.851-.131 1.287a16.215 16.215 0 0 1-.307 1.538h10.274c.951 0 1.726.773 1.726 1.724v.4c0 .252-.056.506-.164.734l-9.871 20.943a2.845 2.845 0 0 1-2.562 1.622h-27.37v0l-7.428-25.423v0h6.553v0h.77a13.519 13.519 0 0 1-.417-2.825h-7.613v0l-.58-1.58a5.686 5.686 0 0 0-5.432-4.07h-3.89a1.413 1.413 0 1 0 0 2.825h3.89c1.25 0 2.367.836 2.716 2.034l8.806 30.142v0l-4.512 5.63a4.56 4.56 0 0 0-.998 2.842c0 2.509 2.044 4.549 4.557 4.549h39.301a1.413 1.413 0 1 0 0-2.825h-39.3a1.722 1.722 0 1 1-1.349-2.801l4.546-5.674v0h27.75a5.685 5.685 0 0 0 5.122-3.244l9.873-20.944a4.584 4.584 0 0 0 .432-1.935v-.4a4.557 4.557 0 0 0-4.556-4.55z"/></g><g><path fill="#00245b" d="M203.668 12.665l-.532.926-.505-.926h-1.055l.505-.899-.514-.871h1.064l.505-.91.532.91h1.015l-.5.871.512.9zm1.493 0l1.565-2.703-.757-1.312-1.045 1.822-1.567-2.709h-1.54l1.085 1.826h-3.13l-.767 1.306h2.079l-1.546 2.692.744 1.303 1.057-1.826 1.572 2.702h1.502l-1.036-1.797h3.15l.764-1.304z"/></g><g><path fill="none" stroke="#00245b" stroke-miterlimit="20" stroke-width=".2" d="M203.668 12.665l-.532.926-.505-.926h-1.055l.505-.899-.514-.871h1.064l.505-.91.532.91h1.015l-.5.871.512.9zm1.493 0l1.565-2.703-.757-1.312-1.045 1.822-1.567-2.709h-1.54l1.085 1.826h-3.13l-.767 1.306h2.079l-1.546 2.692.744 1.303 1.057-1.826 1.572 2.702h1.502l-1.036-1.797h3.15l.764-1.304z"/></g><g><path fill="#f07400" d="M151.385 11.662h-11.55a1.501 1.501 0 1 1 0-3.003h11.55a1.501 1.501 0 1 1 0 3.003"/></g><g><path fill="#f07400" d="M113.409 11.662h-6.03a1.502 1.502 0 1 1 0-3.003h6.03a1.502 1.502 0 1 1 0 3.003m20.1 0h-4.02a1.502 1.502 0 1 1 0-3.003h4.02a1.502 1.502 0 1 1 0 3.003"/></g><g><path fill="#f07400" d="M80.654 11.662h-4.02a1.502 1.502 0 1 1 0-3.003h4.02a1.501 1.501 0 1 1 0 3.003m-20.1 0h-6.03a1.502 1.502 0 1 1 0-3.003h6.03a1.502 1.502 0 1 1 0 3.003m42.21 0h-16.08a1.502 1.502 0 1 1 0-3.003h16.08a1.502 1.502 0 1 1 0 3.003"/></g><g><path fill="#f07400" d="M50.19 11.662H38.64a1.502 1.502 0 1 1 0-3.003h11.55a1.502 1.502 0 0 1 0 3.003"/></g><g><path fill="#fff" d="M20.817 32.6l-2.145 3.745-2.04-3.745h-4.257l2.037-3.633-2.075-3.524h4.295l2.04-3.68 2.145 3.68h4.096l-2.016 3.524 2.066 3.633zm6.028 0l6.313-10.928-3.052-5.303-4.217 7.368-6.326-10.953H13.35l4.378 7.383H5.095L2 25.443h8.389L4.15 36.327l3.002 5.267 4.266-7.383 6.344 10.923h6.062L19.64 37.87H32.36l3.083-5.27z"/></g><g><path fill="#00245b" d="M20.817 32.6l-2.145 3.745-2.04-3.745h-4.257l2.037-3.633-2.075-3.524h4.295l2.04-3.68 2.145 3.68h4.096l-2.016 3.524 2.066 3.633zm6.028 0l6.313-10.928-3.052-5.303-4.217 7.368-6.326-10.953H13.35l4.378 7.383H5.095L2 25.443h8.389L4.15 36.327l3.002 5.267 4.266-7.383 6.344 10.923h6.062L19.64 37.87H32.36l3.083-5.27z"/><path fill="none" stroke="#00245b" stroke-miterlimit="20" stroke-width=".2" d="M20.817 32.6l-2.145 3.745-2.04-3.745h-4.257l2.037-3.633-2.075-3.524h4.295l2.04-3.68 2.145 3.68h4.096l-2.016 3.524 2.066 3.633zm6.028 0l6.313-10.928-3.052-5.303-4.217 7.368-6.326-10.953H13.35l4.378 7.383H5.095L2 25.443h8.389L4.15 36.327l3.002 5.267 4.266-7.383 6.344 10.923h6.062L19.64 37.87H32.36l3.083-5.27z"/></g><g><path fill="#00245b" d="M141.841 23.481v17.105h-7.827V23.481h-6.104l.8-5.785h18.393l.842 5.785z"/></g><g><path fill="none" stroke="#00245b" stroke-miterlimit="20" stroke-width=".2" d="M141.841 23.481v17.105h-7.827v0-17.105 0h-6.104v0l.8-5.785v0h18.393v0l.842 5.785v0z"/></g><g><path fill="#00245b" d="M111.02 40.296l-.224-6.205c.59.184 1.151.325 1.684.42.533.1 1.045.147 1.522.147.863 0 1.572-.167 2.118-.51.548-.335.821-.756.821-1.26 0-.668-.743-1.514-2.238-2.538a31.003 31.003 0 0 1-1.17-.83c-1.06-.804-1.839-1.63-2.35-2.48a5.307 5.307 0 0 1-.759-2.754c0-2.023.948-3.684 2.835-4.987 1.893-1.303 4.342-1.954 7.337-1.954.947 0 1.838.046 2.666.136.827.094 1.627.236 2.392.43v5.592a13.638 13.638 0 0 0-1.824-.557 7.321 7.321 0 0 0-1.501-.184c-.99 0-1.747.152-2.273.462-.526.305-.793.741-.793 1.309 0 .635.723 1.376 2.16 2.227.576.353 1.018.631 1.334.836 1.164.757 2.054 1.629 2.665 2.617.61.982.912 2.033.912 3.153 0 2.249-.996 4.014-2.988 5.297-2 1.282-4.763 1.923-8.299 1.923a38.33 38.33 0 0 1-2.097-.084 26.674 26.674 0 0 1-1.93-.206"/></g><g><path fill="none" stroke="#00245b" stroke-miterlimit="20" stroke-width=".2" d="M111.02 40.296v0l-.224-6.205c.59.184 1.151.325 1.684.42.533.1 1.045.147 1.522.147.863 0 1.572-.167 2.118-.51.548-.335.821-.756.821-1.26 0-.668-.743-1.514-2.238-2.538a31.003 31.003 0 0 1-1.17-.83c-1.06-.804-1.839-1.63-2.35-2.48a5.307 5.307 0 0 1-.759-2.754c0-2.023.948-3.684 2.835-4.987 1.893-1.303 4.342-1.954 7.337-1.954.947 0 1.838.046 2.666.136.827.094 1.627.236 2.392.43v5.592a13.638 13.638 0 0 0-1.824-.557 7.321 7.321 0 0 0-1.501-.184c-.99 0-1.747.152-2.273.462-.526.305-.793.741-.793 1.309 0 .635.723 1.376 2.16 2.227.576.353 1.018.631 1.334.836 1.164.757 2.054 1.629 2.665 2.617.61.982.912 2.033.912 3.153 0 2.249-.996 4.014-2.988 5.297-2 1.282-4.763 1.923-8.299 1.923a38.33 38.33 0 0 1-2.097-.084 26.674 26.674 0 0 1-1.93-.206z"/></g><g><path fill="#fff" d="M100.072 31.144V17.579h7.787v13.565c0 2.1-.197 3.673-.597 4.719-.4 1.044-1.067 1.943-2.014 2.686-.82.642-1.893 1.144-3.205 1.499-1.319.36-2.75.538-4.3.538-1.543 0-2.974-.178-4.293-.538-1.312-.355-2.378-.857-3.185-1.5-.96-.752-1.64-1.661-2.048-2.722-.4-1.06-.604-2.624-.604-4.682V17.579h7.829v13.565c0 1.264.175 2.147.526 2.644.351.502.94.752 1.782.752.835 0 1.431-.256 1.789-.762.358-.512.533-1.39.533-2.634"/></g><g><path fill="#00245b" d="M100.072 31.144V17.579h7.787v13.565c0 2.1-.197 3.673-.597 4.719-.4 1.044-1.067 1.943-2.014 2.686-.82.642-1.893 1.144-3.205 1.499-1.319.36-2.75.538-4.3.538-1.543 0-2.974-.178-4.293-.538-1.312-.355-2.378-.857-3.185-1.5-.96-.752-1.64-1.661-2.048-2.722-.4-1.06-.604-2.624-.604-4.682V17.579h7.829v13.565c0 1.264.175 2.147.526 2.644.351.502.94.752 1.782.752.835 0 1.431-.256 1.789-.762.358-.512.533-1.39.533-2.634z"/><path fill="none" stroke="#00245b" stroke-miterlimit="20" stroke-width=".2" d="M100.072 31.144v0-13.565 0h7.787v13.565c0 2.1-.197 3.673-.597 4.719-.4 1.044-1.067 1.943-2.014 2.686-.82.642-1.893 1.144-3.205 1.499-1.319.36-2.75.538-4.3.538-1.543 0-2.974-.178-4.293-.538-1.312-.355-2.378-.857-3.185-1.5-.96-.752-1.64-1.661-2.048-2.722-.4-1.06-.604-2.624-.604-4.682V17.579v0h7.829v13.565c0 1.264.175 2.147.526 2.644.351.502.94.752 1.782.752.835 0 1.431-.256 1.789-.762.358-.512.533-1.39.533-2.634z"/></g><g><path fill="#fff" d="M69.658 32.298l3.078-7.722.015.035 3.093 7.687zm7.868-14.603h-8.794L58.209 40.587h8.117l1.15-2.568h10.647l1.089 2.568h8.263z"/></g><g><path fill="#00245b" d="M69.658 32.298l3.078-7.722.015.035 3.093 7.687zm7.868-14.603h-8.794L58.209 40.587h8.117l1.15-2.568h10.647l1.089 2.568h8.263z"/><path fill="none" stroke="#00245b" stroke-miterlimit="20" stroke-width=".2" d="M69.658 32.298l3.078-7.722.015.035 3.093 7.687zm7.868-14.603h-8.794L58.209 40.587h8.117l1.15-2.568h10.647l1.089 2.568h8.263z"/></g><g><path fill="#fff" d="M55.179 23.481v17.105H47.35V23.481h-6.104l.8-5.785H60.44l.842 5.785z"/></g><g><path fill="#00245b" d="M55.179 23.481v17.105H47.35V23.481h-6.104l.8-5.785H60.44l.842 5.785z"/><path fill="none" stroke="#00245b" stroke-miterlimit="20" stroke-width=".2" d="M55.179 23.481v17.105H47.35v0-17.105 0h-6.104v0l.8-5.785v0H60.44v0l.842 5.785v0z"/></g><g><path fill="#00245b" d="M169.949 34.283l-2.097 6.303h-16.71v-22.89h16.625l1.298 6.084H158.93v2.327h6.783v6.052h-6.783v2.124z"/></g><g><path fill="#fff" d="M46.848 55.482c1.42.029 2.573.508 3.456 1.437.883.93 1.325 2.12 1.325 3.569 0 1.344-.435 2.465-1.303 3.36-.868.897-2.028 1.417-3.478 1.56zm-5.61-5.42V71h3.271c1.727 0 3.222-.136 4.485-.408 1.263-.272 2.398-.703 3.404-1.294 1.618-.954 2.871-2.181 3.76-3.683.888-1.501 1.332-3.154 1.332-4.956 0-2.002-.402-3.763-1.207-5.284-.804-1.521-1.98-2.748-3.53-3.683-.976-.582-2.08-.999-3.308-1.251-1.228-.253-2.874-.38-4.936-.38z"/></g><g><path fill="#00245b" d="M46.848 55.482c1.42.029 2.573.508 3.456 1.437.883.93 1.325 2.12 1.325 3.569 0 1.344-.435 2.465-1.303 3.36-.868.897-2.028 1.417-3.478 1.56zm-5.61-5.42V71h3.271c1.727 0 3.222-.136 4.485-.408 1.263-.272 2.398-.703 3.404-1.294 1.618-.954 2.871-2.181 3.76-3.683.888-1.501 1.332-3.154 1.332-4.956 0-2.002-.402-3.763-1.207-5.284-.804-1.521-1.98-2.748-3.53-3.683-.976-.582-2.08-.999-3.308-1.251-1.228-.253-2.874-.38-4.936-.38z"/><path fill="none" stroke="#00245b" stroke-miterlimit="20" stroke-width=".2" d="M46.848 55.482c1.42.029 2.573.508 3.456 1.437.883.93 1.325 2.12 1.325 3.569 0 1.344-.435 2.465-1.303 3.36-.868.897-2.028 1.417-3.478 1.56zm-5.61-5.42V71h3.271c1.727 0 3.222-.136 4.485-.408 1.263-.272 2.398-.703 3.404-1.294 1.618-.954 2.871-2.181 3.76-3.683.888-1.501 1.332-3.154 1.332-4.956 0-2.002-.402-3.763-1.207-5.284-.804-1.521-1.98-2.748-3.53-3.683-.976-.582-2.08-.999-3.308-1.251-1.228-.253-2.874-.38-4.936-.38z"/></g><g><path fill="#fff" d="M73.949 65.236L72.439 71H60.406V50.06H72.38l.932 5.564h-7.297v2.131H70.9v5.535h-4.885v1.945z"/></g><g><path fill="#00245b" d="M73.949 65.236L72.439 71H60.406V50.06H72.38l.932 5.564h-7.297v2.131H70.9v5.535h-4.885v1.945z"/><path fill="none" stroke="#00245b" stroke-miterlimit="20" stroke-width=".2" d="M73.949 65.236v0L72.439 71v0H60.406v0V50.06v0H72.38v0l.932 5.564v0h-7.297v2.131H70.9v5.535h-4.885v1.945z"/></g><g><path fill="#00245b" d="M90.095 65.236L88.333 71H76.448V50.06h5.61v15.175z"/></g><g><path fill="none" stroke="#00245b" stroke-miterlimit="20" stroke-width=".2" d="M90.095 65.236v0L88.333 71v0H76.448v0V50.06v0h5.61v15.175z"/></g><g><path fill="#fff" d="M92.392 71V50.062h5.61V71z"/></g><g><path fill="#00245b" d="M92.392 71V50.062h5.61V71z"/><path fill="none" stroke="#00245b" stroke-miterlimit="20" stroke-width=".2" d="M92.392 71v0-20.938 0h5.61V71z"/></g><g><path fill="#fff" d="M106 71l-5.994-20.939h5.965l3.582 14.374 3.182-14.374h5.61L112.854 71z"/></g><g><path fill="#00245b" d="M106 71l-5.994-20.939h5.965l3.582 14.374 3.182-14.374h5.61L112.854 71z"/><path fill="none" stroke="#00245b" stroke-miterlimit="20" stroke-width=".2" d="M106 71v0l-5.994-20.939v0h5.965v0l3.582 14.374v0l3.182-14.374v0h5.61v0L112.854 71v0z"/></g><g><path fill="#00245b" d="M134.044 65.236L132.534 71h-12.033V50.06h11.974l.932 5.564h-7.297v2.131h4.885v5.535h-4.885v1.945z"/></g><g><path fill="none" stroke="#00245b" stroke-miterlimit="20" stroke-width=".2" d="M134.044 65.236v0L132.534 71v0h-12.033v0V50.06v0h11.974v0l.932 5.564v0h-7.297v2.131h4.885v5.535h-4.885v1.945z"/></g><g><path fill="#fff" d="M142.173 54.652h.696c.947 0 1.675.227 2.183.68.508.453.762 1.108.762 1.966 0 .85-.264 1.495-.791 1.938-.529.444-1.296.665-2.302.665h-.548zm0 16.348v-8.968L146.658 71h6.157l-4.766-9.197c1.066-.352 1.905-.984 2.516-1.894.612-.91.918-1.986.918-3.226 0-2.154-.753-3.797-2.257-4.926-1.505-1.13-3.683-1.696-6.535-1.696h-6.128V71z"/></g><g><path fill="#00245b" d="M142.173 54.652h.696c.947 0 1.675.227 2.183.68.508.453.762 1.108.762 1.966 0 .85-.264 1.495-.791 1.938-.529.444-1.296.665-2.302.665h-.548zm0 16.348v-8.968L146.658 71h6.157l-4.766-9.197c1.066-.352 1.905-.984 2.516-1.894.612-.91.918-1.986.918-3.226 0-2.154-.753-3.797-2.257-4.926-1.505-1.13-3.683-1.696-6.535-1.696h-6.128V71z"/><path fill="none" stroke="#00245b" stroke-miterlimit="20" stroke-width=".2" d="M142.173 54.652h.696c.947 0 1.675.227 2.183.68.508.453.762 1.108.762 1.966 0 .85-.264 1.495-.791 1.938-.529.444-1.296.665-2.302.665h-.548zm0 16.348v-8.968L146.658 71h6.157l-4.766-9.197c1.066-.352 1.905-.984 2.516-1.894.612-.91.918-1.986.918-3.226 0-2.154-.753-3.797-2.257-4.926-1.505-1.13-3.683-1.696-6.535-1.696h-6.128V71z"/></g><g><path fill="#00245b" d="M158.004 71v-9.397l-5.876-11.542h6.231l2.576 6.293 2.708-6.293h6.305l-6.305 11.8V71z"/></g><g><path fill="none" stroke="#00245b" stroke-miterlimit="20" stroke-width=".2" d="M158.004 71v0-9.397 0l-5.876-11.542v0h6.231v0l2.576 6.293v0l2.708-6.293v0h6.305v0l-6.305 11.8V71z"/></g></g></g></svg>