<?xml version="1.0" encoding="utf-8"?>
<!-- Generator: Adobe Illustrator 22.0.0, SVG Export Plug-In . SVG Version: 6.00 Build 0)  -->
<svg version="1.1" id="Layer_1" xmlns="http://www.w3.org/2000/svg" xmlns:xlink="http://www.w3.org/1999/xlink" x="0px" y="0px"
	 viewBox="0 0 78 22" style="enable-background:new 0 0 78 22;" xml:space="preserve">
<style type="text/css">
	.st0{fill:#FF8000;}
</style>
<g>
	<path class="st0" d="M29.2,6.2l-3-1.4c-0.5-0.3-0.7-0.9-0.5-1.4v0c0.3-0.5,0.9-0.7,1.4-0.5l3,1.4c0.5,0.3,0.7,0.9,0.5,1.4v0
		C30.4,6.3,29.7,6.5,29.2,6.2z"/>
	<path class="st0" d="M44.3,19.9l-12.2,2c-0.5,0.1-1-0.3-1.1-0.8l0,0c-0.1-0.5,0.3-1,0.8-1.1l12.2-2c0.5-0.1,1,0.3,1.1,0.8v0
		C45.1,19.4,44.8,19.9,44.3,19.9z"/>
	<path class="st0" d="M36,16.4l-3.2,5.1c-0.3,0.5-0.9,0.6-1.3,0.3h0c-0.5-0.3-0.6-0.9-0.3-1.3l3.2-5.1c0.3-0.5,0.9-0.6,1.3-0.3l0,0
		C36.1,15.3,36.2,15.9,36,16.4z"/>
	<circle class="st0" cx="38.6" cy="19.8" r="2"/>
	<circle class="st0" cx="45.4" cy="18.6" r="2"/>
	<path class="st0" d="M43.4,0.1l-13,3.5c-1.5,0.4-2.5,2-2,3.5l2.1,7.7c0.4,1.5,2,2.5,3.5,2l13-3.5c1.5-0.4,2.5-2,2-3.5l-2.1-7.7
		C46.5,0.6,44.9-0.3,43.4,0.1z M46.9,9.5c0.3,1-0.3,2.1-1.4,2.4l-11.2,3c-1,0.3-2.1-0.3-2.4-1.4l-1.6-6.1c-0.3-1,0.3-2.1,1.4-2.4
		l11.2-3c1-0.3,2.1,0.3,2.4,1.4L46.9,9.5z"/>
</g>
</svg>
