<svg xmlns="http://www.w3.org/2000/svg" xmlns:xlink="http://www.w3.org/1999/xlink" aria-hidden="true" focusable="false" width="1em" height="1em" style="-ms-transform: rotate(360deg); -webkit-transform: rotate(360deg); transform: rotate(360deg);" preserveAspectRatio="xMidYMid meet" viewBox="0 0 432 432"><path d="M213 109q44 0 75.5 31.5T320 216t-31.5 75.5T213 323t-75-31.5t-31-75.5t31-75.5t75-31.5zm.5-106q88.5 0 151 62.5T427 216t-62.5 150.5t-151 62.5t-151-62.5T0 216T62.5 65.5T213.5 3zm0 384q70.5 0 120.5-50t50-121t-50-121t-120.5-50T93 95T43 216t50 121t120.5 50z" fill="#626262"/></svg>
