<?xml version="1.0" encoding="utf-8"?>
<!-- Generator: Adobe Illustrator 22.0.0, SVG Export Plug-In . SVG Version: 6.00 Build 0)  -->
<svg version="1.1" id="Layer_1" xmlns="http://www.w3.org/2000/svg" xmlns:xlink="http://www.w3.org/1999/xlink" x="0px" y="0px"
	 viewBox="0 0 768 768" style="enable-background:new 0 0 768 768;" xml:space="preserve">
<style type="text/css">
	.st0{fill:#FAA423;}
</style>
<g>
	
		<ellipse transform="matrix(0.9986 -5.320733e-02 5.320733e-02 0.9986 -27.3172 22.2725)" class="st0" cx="404.6" cy="524.2" rx="30.5" ry="30.5"/>
	
		<ellipse transform="matrix(0.1074 -0.9942 0.9942 0.1074 -44.2788 962.5461)" class="st0" cx="513.9" cy="505.9" rx="30.5" ry="30.5"/>
	<path class="st0" d="M523.4,427.2c-2.1,0.8-4.3,1.4-6.5,2L344,473.7c-35.3,9.1-71.3-12.2-80.4-47.5l-23-89.1
		c-9.2-35.3,12-71.3,47.3-80.5c0.1,0,0.1,0,0.2-0.1l172.9-44.4c35.3-9.1,71.3,12.2,80.4,47.5l23,89.3
		C572.7,381.7,555,415.5,523.4,427.2z M291.7,286.1c-17.7,6.5-27.6,25.4-22.8,43.7l23,89.3c5.1,19.7,25.2,31.6,44.9,26.5l172.9-44.4
		c19.7-5.1,31.6-25.2,26.5-44.9l-23-89.5c-5.1-19.7-25.2-31.5-44.9-26.5L295.3,285C294.1,285.3,292.8,285.7,291.7,286.1z"/>
	<path class="st0" d="M511.9,522.9l-210.2,34.8c-7.9,1.4-15.5-3.9-16.9-11.8c-0.6-3.5,0.1-7.1,1.9-10.1l54.7-89.1l24.9,15.5
		l-37.9,61.5l178.8-29.6L511.9,522.9z"/>
	<path class="st0" d="M269.3,277.7l-46.5-23.8c-8.5-4-18.6-0.4-22.6,8.1c-3.8,8.1-0.7,17.7,7.1,22.1l52.2,26.8L269.3,277.7z"/>
</g>
</svg>
