<?xml version="1.0" encoding="UTF-8"?>
<svg xmlns="http://www.w3.org/2000/svg" xmlns:xlink="http://www.w3.org/1999/xlink" viewBox="0 0 10 10" width="10px" height="10px">
<g id="surface51342227">
<rect x="0" y="0" width="10" height="10" style="fill:rgb(100%,37.254903%,34.901962%);fill-opacity:1;stroke:none;"/>
<path style=" stroke:none;fill-rule:nonzero;fill:rgb(100%,100%,100%);fill-opacity:1;" d="M 8.574219 1.726562 C 8.570312 1.726562 8.5625 1.730469 8.554688 1.730469 C 8.503906 1.746094 8.457031 1.777344 8.429688 1.824219 L 4.34375 8.164062 L 1.53125 5.625 C 1.480469 5.5625 1.398438 5.535156 1.324219 5.554688 C 1.246094 5.574219 1.1875 5.640625 1.175781 5.71875 C 1.164062 5.796875 1.199219 5.875 1.269531 5.917969 L 4.25 8.617188 C 4.292969 8.65625 4.351562 8.675781 4.410156 8.664062 C 4.46875 8.65625 4.519531 8.625 4.550781 8.574219 L 8.769531 2.039062 C 8.816406 1.972656 8.816406 1.886719 8.773438 1.816406 C 8.734375 1.75 8.652344 1.714844 8.574219 1.726562 Z M 8.574219 1.726562 "/>
</g>
</svg>
