<svg xmlns="http://www.w3.org/2000/svg" width="192" height="32" viewBox="0 0 192 32">
  <defs>
    <style>
      .cls-1 {
        fill: #282828;
        fill-rule: evenodd;
      }
    </style>
  </defs>
  <path id="SimiCart" class="cls-1" d="M34.953,28.111h0.48a1.662,1.662,0,0,1,.3-0.512,0.875,0.875,0,0,1,.656-0.192,3.994,3.994,0,0,1,1.28.256q0.736,0.256,1.376.448a9.47,9.47,0,0,0,.992.24q0.448,0.079.9,0.144a8.846,8.846,0,0,0,.96.08q0.511,0.016,1.184.016a8.78,8.78,0,0,0,3.392-.624,7.93,7.93,0,0,0,2.56-1.664,7.162,7.162,0,0,0,1.616-2.4,7.453,7.453,0,0,0,.56-2.864,5.222,5.222,0,0,0-.624-2.688,5.554,5.554,0,0,0-1.5-1.7,6.918,6.918,0,0,0-1.808-.96q-0.928-.32-1.536-0.512l-3.872-1.216q-0.832-.256-1.648-0.592a6.562,6.562,0,0,1-1.472-.832,4.036,4.036,0,0,1-1.072-1.216,3.429,3.429,0,0,1-.416-1.744,3.878,3.878,0,0,1,.528-2.112,4.32,4.32,0,0,1,1.328-1.344,5.362,5.362,0,0,1,1.728-.72,7.818,7.818,0,0,1,1.7-.208,5.557,5.557,0,0,1,2.416.5,5.632,5.632,0,0,1,1.776,1.312,6.875,6.875,0,0,1,1.2,1.888,9.538,9.538,0,0,1,.656,2.224h0.384V5.327H48.521a2.149,2.149,0,0,1-.4.56,0.974,0.974,0,0,1-.56.112,2.146,2.146,0,0,1-.88-0.192L45.7,5.375a8.384,8.384,0,0,0-1.3-.432,8.5,8.5,0,0,0-4.7.32,6.714,6.714,0,0,0-2.224,1.408A6.257,6.257,0,0,0,36.041,8.8a6.891,6.891,0,0,0-.512,2.672,4.724,4.724,0,0,0,1.328,3.52,9.473,9.473,0,0,0,3.92,2.112l3.68,1.12a9.632,9.632,0,0,1,1.424.544,5.947,5.947,0,0,1,1.392.912,4.625,4.625,0,0,1,1.056,1.36,4.12,4.12,0,0,1,.416,1.92,6.259,6.259,0,0,1-.256,1.68,4.662,4.662,0,0,1-.9,1.7,4.846,4.846,0,0,1-1.728,1.3,6.554,6.554,0,0,1-2.784.512q-0.608,0-1.3-.032a7.143,7.143,0,0,1-1.44-.224,6.066,6.066,0,0,1-1.488-.608,5.462,5.462,0,0,1-1.408-1.184,8.4,8.4,0,0,1-1.232-1.952,12.845,12.845,0,0,1-.912-2.912H34.953v6.88ZM57.369,8.127a1.7,1.7,0,0,0,2.9-1.2A1.7,1.7,0,1,0,57.369,8.127ZM54.793,28.111h7.68V27.663H60.009V14.383H54.793v0.448h2.464V27.663H54.793v0.448Zm9.216,0h7.68V27.663H69.224v-7.1a7.55,7.55,0,0,1,.464-2.816,5.813,5.813,0,0,1,1.152-1.872,4.443,4.443,0,0,1,1.488-1.056,3.831,3.831,0,0,1,1.472-.336,1.921,1.921,0,0,1,1.536.672,3.145,3.145,0,0,1,.576,2.08V27.663H73.448v0.448h7.68V27.663H78.664V19.5a5.788,5.788,0,0,1,.4-2.24,4.522,4.522,0,0,1,1.04-1.568,4.292,4.292,0,0,1,1.44-.912,4.478,4.478,0,0,1,1.6-.3,2.153,2.153,0,0,1,1.616.608,2.33,2.33,0,0,1,.592,1.7v10.88H82.888v0.448h7.68V27.663H88.1V18.8q0-4.768-4.672-4.768a5.714,5.714,0,0,0-1.776.256,4.658,4.658,0,0,0-1.36.688,4.379,4.379,0,0,0-.96.976,5.22,5.22,0,0,0-.608,1.12H78.664a3.44,3.44,0,0,0-1.616-2.336,5.611,5.611,0,0,0-2.832-.7,5.149,5.149,0,0,0-3.056.9,5.571,5.571,0,0,0-1.936,2.816H69.16v-3.36H64.008v0.448h2.464V27.663H64.008v0.448ZM94.68,8.127a1.7,1.7,0,0,0,2.9-1.2A1.7,1.7,0,1,0,94.68,8.127ZM92.1,28.111h7.68V27.663H97.32V14.383H92.1v0.448h2.464V27.663H92.1v0.448Zm30.048-6.816H121.8q-0.321,1.217-.736,2.448a6.982,6.982,0,0,1-1.216,2.208,5.865,5.865,0,0,1-2.112,1.584,8.3,8.3,0,0,1-3.456.608,8.65,8.65,0,0,1-3.04-.512,5.216,5.216,0,0,1-2.352-1.792,9.443,9.443,0,0,1-1.52-3.488,23.786,23.786,0,0,1-.544-5.568q0-1.184.08-2.512a19.509,19.509,0,0,1,.336-2.624,12.4,12.4,0,0,1,.752-2.464,6.833,6.833,0,0,1,1.328-2.048,6.137,6.137,0,0,1,2.048-1.408A7.28,7.28,0,0,1,114.28,5.2a7.387,7.387,0,0,1,3.056.56,5.92,5.92,0,0,1,2.032,1.472,6.809,6.809,0,0,1,1.248,2.1,19.559,19.559,0,0,1,.736,2.4H121.7v-6.4h-0.48a3.432,3.432,0,0,1-.5.464,1.532,1.532,0,0,1-.912.208,2.817,2.817,0,0,1-.992-0.192q-0.513-.192-1.12-0.432a11.119,11.119,0,0,0-1.376-.432,7.289,7.289,0,0,0-1.76-.192,10.561,10.561,0,0,0-4.544.976,11.552,11.552,0,0,0-3.616,2.64,12.418,12.418,0,0,0-3.264,8.416,11.089,11.089,0,0,0,1.056,4.96,13.832,13.832,0,0,0,2.624,3.712,10.623,10.623,0,0,0,3.6,2.4,10.786,10.786,0,0,0,3.92.736,10.355,10.355,0,0,0,1.984-.176,15.716,15.716,0,0,0,1.616-.4q0.72-.224,1.28-0.4a3.493,3.493,0,0,1,1.04-.176,1.544,1.544,0,0,1,.9.208,3.1,3.1,0,0,1,.512.464h0.48V21.295Zm11.327,2.176a10.093,10.093,0,0,1-.112,1.424,4.733,4.733,0,0,1-.448,1.456,2.934,2.934,0,0,1-.992,1.12,2.975,2.975,0,0,1-1.712.448,2.466,2.466,0,0,1-1.2-.256,1.954,1.954,0,0,1-.72-0.656,2.534,2.534,0,0,1-.352-0.912,5.377,5.377,0,0,1-.1-0.992,3.109,3.109,0,0,1,.544-1.872,3.5,3.5,0,0,1,1.568-1.168l2.4-.96a1.541,1.541,0,0,0,1.056-.832h0.064v3.2Zm5.344,3.936a2.688,2.688,0,0,1-.736.384,2.319,2.319,0,0,1-.736.128,1.061,1.061,0,0,1-.832-0.32,1.937,1.937,0,0,1-.288-1.248V18.383a5.267,5.267,0,0,0-.256-1.648,3.612,3.612,0,0,0-.864-1.408,4.264,4.264,0,0,0-1.6-.992,7.149,7.149,0,0,0-2.464-.368,7.4,7.4,0,0,0-2.16.288,4.7,4.7,0,0,0-1.568.784,3.387,3.387,0,0,0-.944,1.136,2.973,2.973,0,0,0-.32,1.344,1.753,1.753,0,0,0,.256.992,1.567,1.567,0,0,0,1.312.384,1.3,1.3,0,0,0,.928-0.3,1,1,0,0,0,.32-0.752,4.864,4.864,0,0,0-.1-0.784,5.978,5.978,0,0,1-.1-1.072,1.259,1.259,0,0,1,.688-1.2,3.68,3.68,0,0,1,1.744-.368,3.068,3.068,0,0,1,1.28.224,1.637,1.637,0,0,1,.736.656,2.912,2.912,0,0,1,.352,1.04,8.886,8.886,0,0,1,.1,1.376,6.356,6.356,0,0,1-.144,1.52,1.912,1.912,0,0,1-.528.928,3.082,3.082,0,0,1-1.072.624q-0.688.256-1.744,0.608-0.9.288-1.776,0.544a7.748,7.748,0,0,0-1.6.656,3.324,3.324,0,0,0-1.168,1.072,3.182,3.182,0,0,0-.448,1.792,4.191,4.191,0,0,0,.144,1.04,2.177,2.177,0,0,0,.592,1.008,3.5,3.5,0,0,0,1.248.752,6.183,6.183,0,0,0,2.144.3,5.941,5.941,0,0,0,1.952-.272,3.813,3.813,0,0,0,1.232-.672,2.852,2.852,0,0,0,.688-0.832c0.149-.288.267-0.528,0.352-0.72h0.064a3.481,3.481,0,0,0,.944,1.84,3.151,3.151,0,0,0,2.224.656,3.662,3.662,0,0,0,1.408-.24,4.371,4.371,0,0,0,.992-0.56Zm1.216,0.7h8V27.663h-2.784V20.335a7.752,7.752,0,0,1,.336-2.384,7.037,7.037,0,0,1,.832-1.776,4,4,0,0,1,1.072-1.12,1.981,1.981,0,0,1,1.088-.384,0.95,0.95,0,0,1,1.12,1.024,2.485,2.485,0,0,1-.064.64,2.948,2.948,0,0,1-.144.4q-0.081.176-.144,0.352a1.379,1.379,0,0,0-.064.464q0,0.9,1.408.9a1.842,1.842,0,0,0,1.12-.352,1.665,1.665,0,0,0,.48-1.408,3.039,3.039,0,0,0-.16-0.96,2.249,2.249,0,0,0-.512-0.848,2.781,2.781,0,0,0-.9-0.608,3.154,3.154,0,0,0-1.28-.24,3.662,3.662,0,0,0-1.744.384,4.558,4.558,0,0,0-1.232.944,4.742,4.742,0,0,0-.8,1.168,6.492,6.492,0,0,0-.416,1.088h-0.064V14.383h-5.152v0.448H142.5V27.663h-2.464v0.448Zm12.7-13.28h2.464V25.007a3.51,3.51,0,0,0,.944,2.624,4.731,4.731,0,0,0,3.344.928,3.726,3.726,0,0,0,1.6-.3,3.116,3.116,0,0,0,1.04-.768,3.244,3.244,0,0,0,.592-0.976,7.419,7.419,0,0,0,.288-0.928l-0.448-.16a3.958,3.958,0,0,1-.88,1.872,2.251,2.251,0,0,1-1.808.816,2.378,2.378,0,0,1-.656-0.1,1.386,1.386,0,0,1-.624-0.4,2.192,2.192,0,0,1-.464-0.864,4.947,4.947,0,0,1-.176-1.456V14.831H162.5V14.383h-4.544V10a2.093,2.093,0,0,1-.672.368,2.746,2.746,0,0,1-.832.112,3.142,3.142,0,0,1-.768-0.064q-0.225-.064-0.48-0.16v4.128h-2.464v0.448Z"/>
</svg>
