<svg xmlns="http://www.w3.org/2000/svg" viewBox="0 0 287.81 67.28"><defs><style>.cls-1{fill:#414042;}.cls-2{fill:#faa423;}</style></defs><title>Asset 1</title><g id="Layer_2" data-name="Layer 2"><g id="Layer_1-2" data-name="Layer 1"><path class="cls-1" d="M85.93,62.69V56.12h18.86a4.23,4.23,0,0,0,2.57-1.21,3.36,3.36,0,0,0,1.14-2.52V46.58q0-3.2-4.11-3.72a2.69,2.69,0,0,0-.72-.07H96.82a12.12,12.12,0,0,1-7.5-2.41,8.2,8.2,0,0,1-3.39-6.83V27.77q0-7.15,5.59-9.75a13.13,13.13,0,0,1,5.33-.85h18.47v6.57H96.2a1.06,1.06,0,0,1-.32.07q-3.38.52-3.38,3.71V32q0,4.75,4.29,4.75h8a11,11,0,0,1,5.59,1.5q4.68,2.67,4.68,7.28v7.15a9.35,9.35,0,0,1-4.22,8.13,10.36,10.36,0,0,1-6,1.89Z"/><path class="cls-1" d="M119.29,21.08a3.82,3.82,0,0,1,1.11-2.76,3.81,3.81,0,0,1,5.49.07A4,4,0,0,1,127,21.21a3.88,3.88,0,0,1-6.63,2.7A3.89,3.89,0,0,1,119.29,21.08Zm1,41.61H126V28.55h-5.72Z"/><path class="cls-1" d="M132.36,62.69V37.2q0-8.65,7.87-8.65h5.14a10.81,10.81,0,0,1,1.43.13,6.85,6.85,0,0,1,5.14,2.86q1.43-2.34,5.14-2.86a10.79,10.79,0,0,1,1.43-.13h5.14q7.87,0,7.87,8.65V62.69h-5.66v-25q0-3.25-3.45-3.25h-5q-2.28.46-2.28,3.58V62.69h-5.66v-25a2,2,0,0,1-.06-.33,3.27,3.27,0,0,0-3.53-2.92h-4.51a2.32,2.32,0,0,0-.65.06,3,3,0,0,0-2,.71,3.82,3.82,0,0,0-.72,2V62.69Z"/><path class="cls-1" d="M176.77,21.08a3.82,3.82,0,0,1,1.11-2.76,3.81,3.81,0,0,1,5.49.07,4,4,0,0,1,1.14,2.83,3.88,3.88,0,0,1-6.63,2.7A3.89,3.89,0,0,1,176.77,21.08Zm1,41.61h5.72V28.55h-5.72Z"/><path class="cls-2" d="M192,51.77V28.36a11.49,11.49,0,0,1,2.86-8,9.85,9.85,0,0,1,7.67-3.15h19.12v6.57H203.35q-4.81,0-4.81,4.81V51.25a4.75,4.75,0,0,0,1.4,3.45,4.59,4.59,0,0,0,3.41,1.43h18.14v6.57H202a10.32,10.32,0,0,1-5.72-2Q192,57.88,192,51.77Z"/><path class="cls-2" d="M226.62,53.52v-4.1a12.38,12.38,0,0,1,2-7.41,7.74,7.74,0,0,1,6.72-3.19h14.08V36.52a2.28,2.28,0,0,0-.65-1.62,2,2,0,0,0-1.5-.69H226.62V28.56h20.22q6.7,0,8.13,6.31a14,14,0,0,1,.13,1.56V54a8.2,8.2,0,0,1-1.24,4.36q-2.73,4.36-7.09,4.36H235.4a8.29,8.29,0,0,1-4.94-1.76,9.17,9.17,0,0,1-3.32-4.16A9.45,9.45,0,0,1,226.62,53.52Zm7.16,3A7.27,7.27,0,0,0,237,57h7.73q4.72,0,4.72-3.38V48.13q0-3.25-4-3.64h-9.11q-4.06.46-4.06,3.64v5.53A2.92,2.92,0,0,0,233.79,56.51Z"/><path class="cls-2" d="M261.41,62.69V37.59a16.88,16.88,0,0,1,.13-2,8.11,8.11,0,0,1,1.92-4.91,8.7,8.7,0,0,1,4.91-2,10,10,0,0,1,1.5-.13H273v5.66h-2.83q-3.15,0-3.16,3.45v25Z"/><path class="cls-2" d="M276.24,62.69V17.18h5.66V28.56h5.92v5.66h-5.92V62.69Z"/><circle class="cls-2" cx="39.9" cy="60.76" r="5.9" transform="translate(-3.17 2.21) rotate(-3.05)"/><circle class="cls-2" cx="61.05" cy="57.24" r="5.9" transform="translate(-2.96 3.32) rotate(-3.05)"/><path class="cls-2" d="M62.87,42c-.41.15-.83.28-1.26.39L28.17,51a12.78,12.78,0,0,1-15.56-9.19L8.16,24.58A12.77,12.77,0,0,1,17.35,9L50.79.41A12.78,12.78,0,0,1,66.35,9.6L70.8,26.88A12.74,12.74,0,0,1,62.87,42ZM18.05,14.71a7.1,7.1,0,0,0-4.42,8.46l4.45,17.28a7.13,7.13,0,0,0,8.68,5.13L60.2,37a7.13,7.13,0,0,0,5.13-8.68L60.88,11A7.13,7.13,0,0,0,52.2,5.88L18.76,14.49C18.52,14.55,18.28,14.62,18.05,14.71Z"/><path class="cls-2" d="M60.66,60.51,20,67.24A2.82,2.82,0,0,1,17.1,63L27.69,45.77l4.81,3L25.16,60.66l34.58-5.72Z"/><path class="cls-2" d="M13.73,13.08l-9-4.6a3.28,3.28,0,0,0-3,5.83l10.1,5.18Z"/></g></g></svg>