<svg xmlns="http://www.w3.org/2000/svg" width="15" height="14" viewBox="0 0 15 14">
    <path fill="#FFF" fill-rule="nonzero" d="M14.319 8.46v5.343h-2.96V8.819c0-1.252-.427-2.106-1.499-2.106-.817 0-1.303.575-1.518 1.132-.078.2-.098.476-.098.755v5.203h-2.96s.04-8.442 0-9.316h2.96v1.32l-.02.03h.02v-.03c.394-.633 1.095-1.538 2.668-1.538 1.947 0 3.407 1.331 3.407 4.192zM2.188-.002C1.175-.003.513.692.513 1.607c0 .894.643 1.61 1.636 1.61h.02c1.032 0 1.673-.716 1.673-1.61-.02-.915-.641-1.61-1.654-1.61zm-1.5 13.806h2.96V4.487H.688v9.316z"/>
</svg>
